
        <svg xmlns="http://www.w3.org/2000/svg" xmlns:xlink="http://www.w3.org/1999/xlink" version="1.1" width="3208.3333333333335" height="948.9583333333333" viewBox="0 0 3208.3333333333335 948.9583333333333">
			
			<g transform="scale(10.416666666666666) translate(10, 10)">
				<defs id="SvgjsDefs1235"/><g id="SvgjsG1236" featureKey="symbolContainer" transform="matrix(0.9,0,0,0.9,0,0)" fill="#000"><rect xmlns="http://www.w3.org/2000/svg" width="75" height="79" rx="10" ry="10"/></g><g id="SvgjsG1237" featureKey="monogramFeature-0" transform="matrix(0.9283857016475815,0,0,0.9283857016475815,13.211277258120152,-0.7776629147905538)" fill="#ffffff"><path d="M39.223 43.156 c0.89676 1.6423 1.6156 3.8035 1.4592 6.1638 c-0.10553 2.344 -1.1663 4.5272 -2.4858 6.0444 c-1.3315 1.4948 -2.7978 2.3974 -4.1751 3.0387 c-1.3849 0.62352 -2.7272 0.99852 -4.0505 1.2458 c-0.6585 0.12264 -1.3271 0.20719 -1.9722 0.2625 c-0.61014 0.040664 -1.2171 0.075642 -1.8235 0.080742 c-4.8456 0.071838 -9.5484 -1.0334 -13.688 -3.1244 c-0.1824 -0.099138 -0.31271 -0.24088 -0.41824 -0.40166 c-0.67818 -0.16588 -1.1905 -0.40166 -1.282 -0.69342 c-1.2559 -8.8482 -3.2592 -17.44 -5.9318 -25.656 c-0.012715 -0.007617 -0.026719 -0.015235 -0.039434 -0.023496 c-1.3671 -0.8586 -2.0955 -1.8152 -1.7084 -2.3744 c0.95844 -1.6207 2.0497 -2.8747 3.1816 -3.9456 c1.1364 -1.0664 2.3249 -1.9448 3.5744 -2.6999 c1.2508 -0.75252 2.562 -1.3805 3.9775 -1.88 l1.0843 -0.34705 l1.1332 -0.28981 c0.3934 -0.082614 0.7932 -0.15568 1.1885 -0.22494 l0.9273 -0.10805 c1.2298 -0.12328 2.4768 -0.17602 3.7562 -0.14045 c0.32221 0.01336 0.63558 0.015879 0.96546 0.044473 l1.0322 0.084552 c0.8415 0.07752 1.6703 0.20338 2.4826 0.37242 c3.2522 0.67374 6.162 2.2131 8.2464 4.4503 l0.44807 0.52564 l0.4125 0.55231 c0.27263 0.36862 0.5485 0.73152 0.76206 1.1377 c0.22688 0.39662 0.45316 0.78942 0.62154 1.2134 c0.18369 0.41502 0.35977 0.8307 0.47737 1.2692 c0.53449 1.7256 0.6813 3.5459 0.47543 5.3108 c-0.24152 2.0917 -0.98388 4.0969 -2.0923 5.8486 c0.079452 0.07119 0.164 0.13541 0.24152 0.20848 c1.1936 1.0983 2.3046 2.3911 3.2198 4.0556 z M22.661 31.762 c-0.50783 0.1176 -1.034 0.27263 -1.559 0.45123 c-0.029883 0.25424 -0.064218 0.50654 -0.095334 0.7608 c2.1012 0.22564 4.1173 0.66672 6.105 1.2896 c0.027305 -0.35209 0.003164 -0.69594 -0.07248 -1.0137 c-0.19828 -0.88218 -0.82752 -1.5699 -1.5655 -1.8076 c-0.6063 -0.2059 -1.2152 -0.14678 -1.6715 0.0095508 c-0.11566 0.039434 -0.22242 0.085194 -0.32092 0.13477 c-0.050215 0.02543 -0.24727 0.055957 -0.37693 0.080742 c-0.14045 0.020332 -0.29619 0.064158 -0.44303 0.094686 z M29.241 49.752 c0.13858 -0.11947 0.24545 -0.23625 0.33633 -0.34811 c-0.083262 0.029883 -0.16078 0.061638 -0.2625 0.099786 l-0.089004 0.033047 l-0.01207 0.0025195 l-0.019043 0.0050977 c-0.035566 0 -0.069258 -0.010195 -0.11883 -0.031816 c-0.18814 -0.088362 -0.52693 -0.31019 -0.95466 -0.49324 c-0.42392 -0.20273 -0.86502 -0.30381 -1.4624 -0.46142 c-0.59678 -0.14361 -1.2889 -0.24914 -1.99 -0.33047 c-1.4326 -0.12457 -2.9693 -0.1176 -4.3556 0.12328 c-0.70164 0.095976 -1.3366 0.28412 -1.9111 0.46465 c-0.041953 0.01459 -0.078162 0.031113 -0.11818 0.046348 c-0.239 1.0715 -0.49008 2.1374 -0.7494 3.2001 c2.6255 0.2809 5.2587 0.10418 7.7016 -0.50977 c0.42263 -0.10108 0.837 -0.22629 1.2476 -0.35021 c0.37242 -0.12586 0.71628 -0.25869 1.0538 -0.41314 c0.66924 -0.30381 1.2718 -0.6699 1.7033 -1.0366 z"/></g><g id="SvgjsG1238" featureKey="nameFeature-0" transform="matrix(0.9976620340699393,0,0,0.9976620340699393,86.40331768562076,10.02885480467374)" fill="#000"><path d="M23.01 20.688 c0 1.9432 -0.65408 3.8078 -1.8158 5.3116 c1.162 1.504 1.8161 3.3685 1.8161 5.3116 c0 4.7908 -3.8974 8.6884 -8.6884 8.6884 l-2.2625 0 c-0.58252 0 -1.1411 -0.23141 -1.5529 -0.64316 l-8.2628 -8.2628 c-0.85784 -0.85756 -0.85756 -2.248 0 -3.1056 s2.248 -0.85756 3.1056 0 l7.6196 7.6196 l1.3528 0 c2.3688 0 4.296 -1.9274 4.296 -4.296 c0 -1.3956 -0.6838 -2.7096 -1.829 -3.5156 c-0.58468 -0.4112 -0.93252 -1.0813 -0.93252 -1.7961 s0.34781 -1.3849 0.93252 -1.7961 c1.1452 -0.80568 1.829 -2.12 1.829 -3.5156 c0 -2.3688 -1.9274 -4.296 -4.296 -4.296 l-8.3289 0 l0 3.9768 l7.6192 7.6196 c0.85784 0.85756 0.85784 2.248 0 3.1056 c-0.85756 0.85784 -2.248 0.85784 -3.1056 0 l-8.2628 -8.2628 c-0.41176 -0.41176 -0.64316 -0.9704 -0.64316 -1.5529 l0 -7.0824 c0 -1.2128 0.98328 -2.196 2.196 -2.196 l10.525 0 c4.7908 0 8.6884 3.8974 8.6884 8.6884 z M35.123 35.608 c1.2128 0 2.1961 0.98332 2.1961 2.1961 s-0.98328 2.196 -2.196 2.196 c-5.7668 0 -10.459 -4.692 -10.459 -10.459 l0 -15.345 c0 -1.2128 0.98328 -2.196 2.196 -2.196 s2.196 0.98328 2.196 2.196 l0 15.345 c0 3.3452 2.7215 6.0668 6.0668 6.0668 z M55.400000000000006 19.412 c1.2128 0 2.196 0.98328 2.196 2.196 l0 16.196 c0 1.2128 -0.98328 2.196 -2.196 2.196 c-1.1071 0 -2.0201 -0.81968 -2.1716 -1.885 c-1.677 1.1856 -3.721 1.885 -5.9264 1.885 c-5.6764 0 -10.294 -4.6176 -10.294 -10.294 s4.6176 -10.294 10.294 -10.294 c2.2054 0 4.2492 0.69944 5.9264 1.885 c0.15152 -1.0654 1.0645 -1.885 2.1716 -1.885 z M47.302 35.608 c3.2543 0 5.902 -2.6476 5.902 -5.902 s-2.6476 -5.902 -5.902 -5.902 s-5.902 2.6476 -5.902 5.902 s2.6476 5.902 5.902 5.902 z M77.664 35.608 c1.2128 0 2.196 0.98328 2.196 2.196 s-0.98328 2.196 -2.196 2.196 l-16.196 0 c-0.88804 0 -1.6885 -0.53528 -2.0286 -1.3558 s-0.15234 -1.7651 0.47576 -2.3932 l12.447 -12.447 l-10.894 0 c-1.2128 0 -2.196 -0.98328 -2.196 -2.196 s0.98328 -2.196 2.196 -2.196 l16.196 0 c0.88804 0 1.6885 0.53528 2.0286 1.3558 s0.15234 1.7651 -0.47576 2.3932 l-12.447 12.447 l10.894 0 z M89.83 19.412 c5.6764 0 10.294 4.6176 10.294 10.294 c0 1.2128 -0.98328 2.196 -2.196 2.196 l-13.576 0 c0.87292 2.17 2.9995 3.7059 5.4784 3.7059 c1.5765 0 3.0586 -0.6138 4.1732 -1.7286 c0.85784 -0.85756 2.248 -0.85732 3.1058 0 c0.85784 0.85784 0.85756 2.2482 0 3.1058 c-1.9446 1.9443 -4.5296 3.0149 -7.2792 3.0149 c-5.6764 0 -10.294 -4.6176 -10.294 -10.294 s4.6176 -10.294 10.294 -10.294 z M84.35159999999999 27.509999999999998 l10.957 0 c-0.87292 -2.17 -2.9995 -3.7059 -5.4784 -3.7059 s-4.6056 1.5359 -5.4784 3.7059 z M123.21 20.688 c0 1.9432 -0.65408 3.8078 -1.8158 5.3116 c1.162 1.504 1.8161 3.3685 1.8161 5.3116 c0 4.7908 -3.8974 8.6884 -8.6884 8.6884 l-2.2625 0 c-0.58252 0 -1.1411 -0.23141 -1.5529 -0.64316 l-8.2628 -8.2628 c-0.85784 -0.85756 -0.85756 -2.248 0 -3.1056 s2.248 -0.85756 3.1056 0 l7.6196 7.6196 l1.3528 0 c2.3688 0 4.296 -1.9274 4.296 -4.296 c0 -1.3956 -0.6838 -2.7096 -1.829 -3.5156 c-0.58468 -0.4112 -0.93252 -1.0813 -0.93252 -1.7961 s0.34781 -1.3849 0.93252 -1.7961 c1.1452 -0.80568 1.829 -2.12 1.829 -3.5156 c0 -2.3688 -1.9274 -4.296 -4.296 -4.296 l-8.3289 0 l0 3.9768 l7.6192 7.6196 c0.85784 0.85756 0.85784 2.248 0 3.1056 c-0.85756 0.85784 -2.248 0.85784 -3.1056 0 l-8.2628 -8.2628 c-0.41176 -0.41176 -0.64316 -0.9704 -0.64316 -1.5529 l0 -7.0824 c0 -1.2128 0.98328 -2.196 2.196 -2.196 l10.525 0 c4.7908 0 8.6884 3.8974 8.6884 8.6884 z M135.158 19.412 c5.6764 0 10.294 4.6176 10.294 10.294 s-4.6176 10.294 -10.294 10.294 s-10.294 -4.6176 -10.294 -10.294 s4.6176 -10.294 10.294 -10.294 z M135.158 35.608 c3.2543 0 5.902 -2.6476 5.902 -5.902 s-2.6476 -5.902 -5.902 -5.902 s-5.902 2.6476 -5.902 5.902 s2.6476 5.902 5.902 5.902 z M165.51999999999998 19.412 c1.2128 0 2.196 0.98328 2.196 2.196 l0 16.196 c0 1.2128 -0.98328 2.196 -2.196 2.196 c-1.1071 0 -2.0201 -0.81968 -2.1716 -1.885 c-1.677 1.1856 -3.721 1.885 -5.9264 1.885 c-5.6764 0 -10.294 -4.6176 -10.294 -10.294 s4.6176 -10.294 10.294 -10.294 c2.2054 0 4.2492 0.69944 5.9264 1.885 c0.15152 -1.0654 1.0645 -1.885 2.1716 -1.885 z M157.422 35.608 c3.2543 0 5.902 -2.6476 5.902 -5.902 s-2.6476 -5.902 -5.902 -5.902 s-5.902 2.6476 -5.902 5.902 s2.6476 5.902 5.902 5.902 z M179.686 19.412 c1.2128 0 2.196 0.98328 2.196 2.196 s-0.98328 2.196 -2.196 2.196 c-3.2543 0 -5.902 2.6476 -5.902 5.902 l0 8.098 c0 1.2128 -0.98328 2.196 -2.196 2.196 s-2.196 -0.98328 -2.196 -2.196 l0 -16.196 c0 -1.2128 0.98328 -2.196 2.196 -2.196 c1.1071 0 2.0201 0.81996 2.1716 1.885 c1.677 -1.1856 3.721 -1.885 5.9264 -1.885 z M199.87300000000002 12 c1.2128 0 2.1961 0.98328 2.1961 2.196 l0 23.608 c0 1.2128 -0.98328 2.196 -2.196 2.196 c-1.103 0 -2.013 -0.81364 -2.1697 -1.873 c-1.6707 1.1782 -3.7056 1.873 -5.9008 1.873 c-5.6612 0 -10.267 -4.6056 -10.267 -10.267 s4.6056 -10.267 10.267 -10.267 c2.1837 0 4.2088 0.6874 5.8744 1.8541 l0 -7.1249 c0 -1.2128 0.98328 -2.196 2.196 -2.196 z M191.803 35.608 c3.2392 0 5.8744 -2.6353 5.8744 -5.8744 s-2.6353 -5.8744 -5.8744 -5.8744 s-5.8744 2.6353 -5.8744 5.8744 s2.6353 5.8744 5.8744 5.8744 z"/></g>
			</g>
		</svg>
	